# xmcd CD database file
#
# Track frame offsets:
#	150
#	30240
#	58822
#	81825
#	90940
#	120765
#	153440
#	183720
#	204057
#	219855
#	240432
#	251190
#	273457
#	284170
#
# Disc length: 4156 seconds
#
# Revision: 0
# Processed by: cddbd v1.5.2PL0 Copyright (c) Steve Scherf et al.
# Submitted via: CDex 1.99.1
#
DISCID=b7103a0e
DTITLE=Various Artist - Telarc Jazz - In-Store Sampler 2001
DYEAR=2001
DGENRE=Jazz
TTITLE0=Back In The Bay - Steve Turre
TTITLE1=Papa Was A Rolling Stone - Ray Brown, John Clayton, Christian McBride
TTITLE2=Just Squeeze Me - Tierney Sutton
TTITLE3=Just You, Just Me - Tierney Sutton
TTITLE4=End The Beguine - Jim Hall, Dave Holland
TTITLE5=The Crossing Quartet - Dave Brubeck
TTITLE6=Rio De Janeiro Blue - Freddy Cole
TTITLE7=Wild Is Love - Freddy Cole
TTITLE8=Donna Lee - The George Shearing Quintet
TTITLE9=Girl Talk - Vanessa Rubin
TTITLE10=Sex Is A Misdemeanor - Vanessa Rubin
TTITLE11=Green's Blues - Benny Green
TTITLE12=Nice Work If You Can Get It - Benny Green
TTITLE13=Soulful Moments - Ernest Ranglin
EXTD=YEAR: 2001
EXTT0=
EXTT1=
EXTT2=
EXTT3=
EXTT4=
EXTT5=
EXTT6=
EXTT7=
EXTT8=
EXTT9=
EXTT10=
EXTT11=
EXTT12=
EXTT13=
PLAYORDER=
